# xmcd
#
# Track frame offsets:
#	150
#	13514
#	49532
#	72685
#	104276
#	116425
#	131802
#	150660
#	170775
#	190343
#	203977
#	214815
#	231498
#	255815
#	272226
#
# Disc length: 3885 seconds
#
# Revision: 1
# Processed by: cddbd v1.4PL0 Copyright (c) Steve Scherf et al.
# Submitted via: audiograbber 1.81.03
#
DISCID=de0f2b0f
DTITLE=Various Artitsts - Portland Best Blues, Vol. 1
DYEAR=2001
DGENRE=Blues
TTITLE0=Jim Mesi with Curtis Salgado - Waitin' On You
TTITLE1=Linda Hornbuckle - Steal Away
TTITLE2=Robbie Laws - Takin' The  Night Train
TTITLE3=The Norman Sylvester Band - Blues Picnic
TTITLE4=The Blues Police - The Sprawl
TTITLE5=D.K. Stewart - Sweet Baby Boy
TTITLE6=Isaac Scott - Feast Goin' On
TTITLE7=Lloyd Jones Struggle - Toughen Up
TTITLE8=Bill Rhodes and Alan Hager - I'll Show You How
TTITLE9=Terry Robb - Enron Blues
TTITLE10=Stu Kinzel and LynnAnn Hyde - Hubcap Hula
TTITLE11=Sheila Wilcoxson - Louie
TTITLE12=The Jim Mesi Band - Alberta Street Blues
TTITLE13=Albert Reda - Lovesick Melody
TTITLE14=The Duffy Bishop Band - Damn Blues
EXTD=
EXTT0=
EXTT1=
EXTT2=
EXTT3=
EXTT4=
EXTT5=
EXTT6=
EXTT7=
EXTT8=
EXTT9=
EXTT10=
EXTT11=
EXTT12=
EXTT13=
EXTT14=
PLAYORDER=
